<svg xmlns="http://www.w3.org/2000/svg" version="1.1" xmlns:xlink="http://www.w3.org/1999/xlink" xmlns:svgjs="http://svgjs.dev/svgjs" width="2000" height="2000" viewBox="0 0 2000 2000"><g transform="matrix(1,0,0,1,0,0)"><svg viewBox="0 0 280 280" data-background-color="#dfdad6" preserveAspectRatio="xMidYMid meet" height="2000" width="2000" xmlns="http://www.w3.org/2000/svg" xmlns:xlink="http://www.w3.org/1999/xlink"><g id="tight-bounds" transform="matrix(1,0,0,1,0,0)"><svg viewBox="0 0 280 280" height="280" width="280"><g><svg viewBox="0 0 280 280" height="280" width="280"><g><svg viewBox="0 0 280 280" height="280" width="280"><g id="textblocktransform"><svg viewBox="0 0 280 280" height="280" width="280" id="textblock"><g><svg viewBox="0 0 280 280" height="280" width="280"><g transform="matrix(1,0,0,1,96.88219983164697,90.50252531694167)"><svg viewBox="0 0 86.23560033670607 98.99494936611664" height="98.99494936611664" width="86.23560033670607"><g id="icon-0"><svg xmlns="http://www.w3.org/2000/svg" xmlns:xlink="http://www.w3.org/1999/xlink" version="1.1" x="0" y="0" viewBox="10.1 5.2 78.4 90" enable-background="new 0 0 100 100" xml:space="preserve" height="98.99494936611664" width="86.23560033670607" class="icon-jxe-0" data-fill-palette-color="accent" id="jxe-0"><polygon fill-rule="evenodd" clip-rule="evenodd" fill="#000000" points="88.5,28.2 68.4,59.9 68.5,22.3 " data-fill-palette-color="accent"></polygon><polygon fill-rule="evenodd" clip-rule="evenodd" fill="#000000" points="49.8,5.2 67.2,38.5 34.7,19.6 " data-fill-palette-color="accent"></polygon><polygon fill-rule="evenodd" clip-rule="evenodd" fill="#000000" points="67.8,38.3 67.8,22.3 60.8,24.5 " data-fill-palette-color="accent"></polygon><polygon fill-rule="evenodd" clip-rule="evenodd" fill="#000000" points="88.2,73.2 50.6,71.7 83.2,52.9 " data-fill-palette-color="accent"></polygon><polygon fill-rule="evenodd" clip-rule="evenodd" fill="#000000" points="69.1,60.3 82.8,52.3 77.4,47.4 " data-fill-palette-color="accent"></polygon><polygon fill-rule="evenodd" clip-rule="evenodd" fill="#000000" points="48.7,95.2 31.5,61.9 63.9,80.9 " data-fill-palette-color="accent"></polygon><polygon fill-rule="evenodd" clip-rule="evenodd" fill="#000000" points="50.5,72.2 64.2,80.2 65.8,73.1 " data-fill-palette-color="accent"></polygon><polygon fill-rule="evenodd" clip-rule="evenodd" fill="#000000" points="10.1,72 30.5,40.4 30.1,78 " data-fill-palette-color="accent"></polygon><polygon fill-rule="evenodd" clip-rule="evenodd" fill="#000000" points="30.9,62.1 30.8,78 37.8,75.8 " data-fill-palette-color="accent"></polygon><polygon fill-rule="evenodd" clip-rule="evenodd" fill="#000000" points="11,27 48.5,28.9 15.8,47.3 " data-fill-palette-color="accent"></polygon><polygon fill-rule="evenodd" clip-rule="evenodd" fill="#000000" points="30,40.1 16.1,47.9 21.5,52.9 " data-fill-palette-color="accent"></polygon><polygon fill-rule="evenodd" clip-rule="evenodd" fill="#000000" points="48.2,28.3 34.5,20.2 32.9,27.4 " data-fill-palette-color="accent"></polygon></svg></g></svg></g><g id="text-0"><path d="M33.078 104.735l-0.83 2.54-26.214-8.568 1.529-4.679c0.988-3.024 2.398-5.16 4.229-6.408 1.833-1.254 3.899-1.506 6.198-0.754v0c2.292 0.749 3.807 2.171 4.546 4.265 0.741 2.088 0.617 4.645-0.371 7.669v0l-0.7 2.139zM8.461 94.321v0l-0.7 2.139 12.807 4.186 0.699-2.139c1.494-4.571 0.108-7.554-4.157-8.948v0c-4.272-1.396-7.155 0.191-8.649 4.762z" fill="#000000" data-fill-palette-color="primary"></path><path d="M36.146 68.153v0c-1.555-1.293-2.772-2.774-3.648-4.444-0.886-1.669-1.411-3.42-1.576-5.256-0.169-1.83 0.026-3.646 0.583-5.447 0.561-1.807 1.488-3.488 2.781-5.043v0c1.293-1.555 2.777-2.774 4.451-3.656 1.674-0.882 3.426-1.407 5.255-1.576 1.83-0.169 3.648 0.028 5.455 0.589 1.802 0.557 3.48 1.482 5.036 2.775v0c1.555 1.293 2.774 2.777 3.656 4.45 0.882 1.674 1.407 3.426 1.575 5.256 0.169 1.83-0.028 3.648-0.589 5.455-0.561 1.807-1.488 3.488-2.781 5.043v0c-1.293 1.555-2.777 2.774-4.451 3.656-1.67 0.877-3.419 1.399-5.249 1.568-1.834 0.174-3.652-0.023-5.455-0.589-1.807-0.561-3.488-1.488-5.043-2.781zM38.06 65.85v0c2.06 1.713 4.165 2.848 6.314 3.407 2.149 0.558 4.199 0.538 6.151-0.06 1.952-0.598 3.649-1.765 5.093-3.502v0c1.443-1.736 2.28-3.618 2.511-5.646 0.232-2.028-0.128-4.052-1.08-6.072-0.942-2.02-2.436-3.88-4.48-5.58v0c-2.04-1.696-4.136-2.82-6.29-3.373-2.149-0.558-4.202-0.54-6.159 0.054-1.962 0.59-3.665 1.753-5.108 3.488v0c-1.443 1.736-2.276 3.613-2.499 5.631-0.228 2.014 0.124 4.031 1.057 6.053 0.933 2.021 2.429 3.888 4.49 5.6z" fill="#000000" data-fill-palette-color="primary"></path><path d="M82.909 43.05l-12.913-24.369 4.661-2.47c2.462-1.305 4.644-1.801 6.545-1.489 1.91 0.314 3.357 1.401 4.342 3.259v0c0.762 1.438 0.972 2.858 0.631 4.259-0.345 1.395-1.233 2.681-2.664 3.856v0l0.113 0.213c1.693-0.51 3.326-0.455 4.898 0.168 1.579 0.619 3.056 1.633 4.431 3.041v0c1.25 1.301 2.316 2.26 3.196 2.877 0.878 0.626 1.674 0.985 2.39 1.076 0.724 0.094 1.487 0.031 2.287-0.189v0l0.113 0.214-1.429 0.757c-1.018 0.539-1.957 0.798-2.818 0.777-0.857-0.016-1.752-0.345-2.684-0.989-0.935-0.634-2.02-1.617-3.256-2.947v0c-1.942-2.034-3.734-3.256-5.376-3.667-1.64-0.405-3.261-0.182-4.865 0.668v0l-0.204 0.108-0.334-0.63 0.204-0.108c3.734-1.979 4.692-4.685 2.873-8.117v0c-1.797-3.391-4.447-4.159-7.951-2.302v0l-2.299 1.218 12.47 23.534z" fill="#000000" data-fill-palette-color="primary"></path><path d="M122.258 28.712l-2.631 0.467-4.822-27.154 11.406-2.025 0.337 1.899-6.598 0.254c-1.195 0.049-1.988 0.108-2.376 0.177v0l2.157 12.147c0.415-0.074 1.213-0.256 2.392-0.547v0l5.867-1.44 0.316 1.781-6.003 0.668c-1.208 0.133-2.019 0.236-2.435 0.31v0z" fill="#000000" data-fill-palette-color="primary"></path><path d="M152.43 14.33v0c0.376-1.988 1.081-3.77 2.116-5.346 1.029-1.584 2.306-2.894 3.831-3.928 1.518-1.035 3.2-1.746 5.045-2.134 1.852-0.386 3.772-0.391 5.76-0.014v0c1.988 0.376 3.773 1.082 5.356 2.117 1.583 1.036 2.892 2.313 3.928 3.831 1.035 1.518 1.746 3.203 2.131 5.056 0.387 1.846 0.393 3.762 0.017 5.749v0c-0.376 1.988-1.082 3.773-2.117 5.356-1.036 1.583-2.313 2.892-3.831 3.928-1.518 1.035-3.203 1.746-5.056 2.132-1.852 0.386-3.772 0.391-5.759 0.015v0c-1.988-0.376-3.773-1.082-5.357-2.118-1.577-1.034-2.883-2.311-3.918-3.829-1.042-1.52-1.752-3.205-2.131-5.055-0.386-1.852-0.391-3.772-0.015-5.76zM155.372 14.886v0c-0.498 2.632-0.47 5.024 0.085 7.174 0.554 2.15 1.567 3.933 3.037 5.35 1.47 1.417 3.314 2.335 5.532 2.754v0c2.218 0.42 4.27 0.238 6.156-0.543 1.886-0.782 3.481-2.078 4.785-3.891 1.309-1.804 2.211-4.013 2.705-6.625v0c0.493-2.606 0.459-4.985-0.102-7.136-0.554-2.15-1.566-3.936-3.035-5.36-1.468-1.43-3.311-2.354-5.529-2.773v0c-2.218-0.42-4.263-0.237-6.136 0.546-1.872 0.778-3.465 2.064-4.779 3.861-1.315 1.796-2.221 4.011-2.719 6.643z" fill="#000000" data-fill-palette-color="primary"></path><path d="M197.571 43.144l14.23-23.624 2.289 1.379-13.826 22.952c0.43 0.259 1.149 0.598 2.156 1.017v0l6.11 2.531-1.037 1.722z" fill="#000000" data-fill-palette-color="primary"></path><path d="M225.179 65.771l-1.868-1.911 19.723-19.276 1.868 1.912z" fill="#000000" data-fill-palette-color="primary"></path><path d="M250.127 78.206v0c1.845-0.83 3.709-1.273 5.594-1.328 1.888-0.064 3.693 0.233 5.414 0.89 1.718 0.652 3.265 1.623 4.639 2.914 1.377 1.297 2.481 2.868 3.311 4.713v0c0.83 1.845 1.274 3.712 1.333 5.603 0.058 1.891-0.239 3.696-0.891 5.414-0.652 1.718-1.626 3.266-2.923 4.643-1.291 1.374-2.859 2.477-4.704 3.307v0c-1.845 0.83-3.712 1.274-5.603 1.332-1.891 0.058-3.696-0.239-5.414-0.89-1.718-0.652-3.266-1.626-4.643-2.923-1.377-1.297-2.481-2.868-3.311-4.713v0c-0.83-1.845-1.274-3.712-1.332-5.603-0.055-1.885 0.243-3.686 0.894-5.405 0.649-1.724 1.623-3.272 2.924-4.643 1.297-1.377 2.868-2.481 4.712-3.311zM251.356 80.936v0c-2.443 1.1-4.387 2.492-5.832 4.178-1.445 1.686-2.326 3.537-2.645 5.554-0.319 2.017-0.015 4.054 0.911 6.113v0c0.926 2.058 2.25 3.637 3.971 4.735 1.721 1.098 3.698 1.663 5.93 1.694 2.229 0.04 4.556-0.486 6.981-1.578v0c2.419-1.089 4.349-2.479 5.79-4.171 1.445-1.686 2.33-3.539 2.655-5.558 0.331-2.022 0.034-4.062-0.893-6.12v0c-0.926-2.058-2.247-3.631-3.963-4.717-1.709-1.089-3.677-1.658-5.902-1.706-2.225-0.049-4.56 0.477-7.003 1.576z" fill="#000000" data-fill-palette-color="primary"></path><path d="M6.863 185.391l-0.83-2.541 26.214-8.567 1.529 4.679c0.988 3.024 1.112 5.58 0.371 7.669-0.739 2.095-2.257 3.518-4.555 4.268v0c-2.292 0.749-4.355 0.497-6.188-0.757-1.831-1.248-3.241-3.384-4.229-6.408v0l-0.7-2.139zM32.878 179.255v0l-0.699-2.139-12.806 4.186 0.699 2.139c1.494 4.571 4.374 6.16 8.64 4.765v0c4.272-1.396 5.661-4.38 4.166-8.951z" fill="#000000" data-fill-palette-color="primary"></path><path d="M36.153 213.399v0c1.555-1.293 3.234-2.218 5.036-2.775 1.802-0.566 3.621-0.763 5.455-0.59 1.83 0.169 3.58 0.691 5.249 1.568 1.674 0.882 3.157 2.101 4.45 3.656v0c1.293 1.555 2.22 3.237 2.781 5.044 0.561 1.807 0.758 3.625 0.59 5.455-0.169 1.83-0.694 3.582-1.576 5.255-0.877 1.67-2.093 3.151-3.648 4.444v0c-1.555 1.293-3.237 2.22-5.044 2.782-1.807 0.561-3.625 0.758-5.455 0.589-1.83-0.169-3.582-0.694-5.255-1.576-1.674-0.882-3.157-2.101-4.451-3.656v0c-1.293-1.555-2.22-3.237-2.781-5.043-0.557-1.802-0.751-3.617-0.583-5.448 0.164-1.835 0.69-3.587 1.576-5.255 0.882-1.674 2.101-3.157 3.656-4.45zM38.067 215.701v0c-2.06 1.713-3.561 3.574-4.503 5.585-0.941 2.011-1.296 4.03-1.064 6.059 0.232 2.028 1.069 3.911 2.512 5.646v0c1.443 1.736 3.14 2.903 5.092 3.501 1.952 0.598 4.008 0.614 6.167 0.048 2.158-0.557 4.26-1.686 6.305-3.386v0c2.04-1.696 3.528-3.551 4.465-5.567 0.941-2.011 1.299-4.032 1.072-6.066-0.221-2.037-1.054-3.923-2.496-5.659v0c-1.443-1.736-3.136-2.898-5.08-3.485-1.938-0.592-3.986-0.615-6.143-0.067-2.157 0.548-4.266 1.678-6.327 3.391z" fill="#000000" data-fill-palette-color="primary"></path><path d="M69.996 262.877l12.913-24.369 4.66 2.47c2.462 1.305 4.098 2.831 4.908 4.579 0.812 1.757 0.726 3.565-0.259 5.423v0c-0.762 1.438-1.819 2.409-3.17 2.914-1.348 0.498-2.91 0.486-4.686-0.039v0l-0.113 0.213c1.373 1.114 2.244 2.496 2.612 4.147 0.374 1.654 0.365 3.445-0.028 5.375v0c-0.374 1.765-0.57 3.185-0.586 4.26-0.025 1.078 0.125 1.939 0.451 2.581 0.329 0.652 0.809 1.248 1.441 1.787v0l-0.113 0.213-1.429-0.757c-1.018-0.539-1.76-1.171-2.225-1.895-0.468-0.718-0.698-1.643-0.689-2.776 0-1.13 0.203-2.579 0.61-4.35v0c0.592-2.749 0.597-4.918 0.015-6.507-0.586-1.584-1.681-2.801-3.285-3.651v0l-0.204-0.108 0.334-0.63 0.204 0.108c3.734 1.979 6.511 1.252 8.33-2.181v0c1.797-3.391 0.944-6.015-2.56-7.871v0l-2.299-1.219-12.471 23.535z" fill="#000000" data-fill-palette-color="primary"></path><path d="M117.437 280l-2.632-0.467 4.822-27.154 11.406 2.025-0.338 1.899-6.281-2.033c-1.139-0.366-1.903-0.583-2.293-0.652v0l-2.157 12.147c0.415 0.074 1.227 0.177 2.435 0.31v0l6.004 0.668-0.316 1.781-5.867-1.44c-1.18-0.291-1.977-0.474-2.393-0.547v0z" fill="#000000" data-fill-palette-color="primary"></path><path d="M152.428 267.218v0c-0.376-1.988-0.37-3.904 0.017-5.749 0.379-1.851 1.09-3.536 2.132-5.056 1.035-1.518 2.341-2.795 3.918-3.829 1.583-1.036 3.369-1.742 5.356-2.118v0c1.988-0.376 3.907-0.371 5.759 0.015 1.852 0.386 3.537 1.096 5.056 2.132 1.518 1.035 2.795 2.344 3.831 3.928 1.034 1.577 1.74 3.359 2.115 5.346v0c0.376 1.988 0.371 3.907-0.014 5.759-0.386 1.852-1.096 3.537-2.132 5.056-1.035 1.518-2.344 2.795-3.928 3.831-1.583 1.036-3.369 1.742-5.356 2.117v0c-1.988 0.376-3.907 0.371-5.76-0.014-1.846-0.387-3.527-1.098-5.045-2.134-1.525-1.034-2.802-2.343-3.831-3.928-1.036-1.583-1.742-3.369-2.118-5.356zM155.37 266.662v0c0.498 2.632 1.398 4.848 2.699 6.647 1.301 1.799 2.895 3.089 4.782 3.87 1.886 0.782 3.938 0.963 6.155 0.543v0c2.218-0.42 4.062-1.338 5.533-2.754 1.47-1.417 2.481-3.206 3.033-5.369 0.56-2.158 0.593-4.543 0.099-7.156v0c-0.493-2.606-1.393-4.808-2.702-6.605-1.301-1.799-2.896-3.092-4.783-3.881-1.889-0.795-3.942-0.982-6.16-0.563v0c-2.218 0.42-4.055 1.336-5.512 2.751-1.458 1.407-2.471 3.187-3.039 5.339-0.568 2.152-0.602 4.545-0.105 7.178z" fill="#000000" data-fill-palette-color="primary"></path><path d="M211.801 262.038l-14.23-23.624 2.289-1.379 13.826 22.953c0.43-0.259 1.066-0.736 1.907-1.43v0l5.094-4.218 1.037 1.721z" fill="#000000" data-fill-palette-color="primary"></path><path d="M244.903 235.062l-1.868 1.911-19.724-19.275 1.868-1.912z" fill="#000000" data-fill-palette-color="primary"></path><path d="M250.119 203.347v0c-1.845-0.83-3.412-1.933-4.704-3.307-1.3-1.371-2.274-2.919-2.923-4.643-0.652-1.718-0.95-3.52-0.894-5.404 0.058-1.891 0.502-3.759 1.332-5.604v0c0.83-1.845 1.934-3.415 3.311-4.712 1.377-1.297 2.925-2.272 4.643-2.923 1.718-0.652 3.523-0.948 5.414-0.891 1.885 0.055 3.75 0.498 5.594 1.328v0c1.845 0.83 3.415 1.934 4.713 3.311 1.297 1.377 2.272 2.925 2.923 4.643 0.652 1.718 0.948 3.523 0.89 5.414-0.058 1.891-0.502 3.759-1.332 5.604v0c-0.83 1.845-1.934 3.415-3.311 4.712-1.374 1.291-2.921 2.262-4.639 2.914-1.721 0.658-3.526 0.955-5.414 0.891-1.891-0.058-3.759-0.502-5.603-1.333zM251.348 200.617v0c2.443 1.1 4.775 1.631 6.994 1.595 2.22-0.036 4.19-0.604 5.912-1.702 1.721-1.098 3.045-2.677 3.971-4.735v0c0.926-2.058 1.23-4.096 0.911-6.112-0.319-2.017-1.207-3.871-2.663-5.562-1.448-1.695-3.384-3.088-5.81-4.18v0c-2.419-1.089-4.739-1.612-6.962-1.569-2.22 0.036-4.193 0.602-5.92 1.698-1.733 1.093-3.063 2.668-3.99 4.727v0c-0.926 2.058-1.227 4.09-0.903 6.094 0.318 2.002 1.197 3.851 2.636 5.55 1.439 1.698 3.38 3.097 5.824 4.196z" fill="#000000" data-fill-palette-color="primary"></path><path d="M2.661 140.779c0-5.935 4.811-10.746 10.746-10.747 5.935 0 10.746 4.811 10.746 10.747 0 5.935-4.811 10.746-10.746 10.746-5.935 0-10.746-4.811-10.746-10.746z" fill="#000000" data-fill-palette-color="primary"></path><path d="M255.847 140.779c0-5.935 4.811-10.746 10.746-10.747 5.935 0 10.746 4.811 10.746 10.747 0 5.935-4.811 10.746-10.746 10.746-5.935 0-10.746-4.811-10.746-10.746z" fill="#000000" data-fill-palette-color="primary"></path></g><g id="text-1"></g></svg></g></svg></g></svg></g><g></g></svg></g><defs></defs></svg><rect width="280" height="280" fill="none" stroke="none" visibility="hidden"></rect></g></svg></g></svg>